<svg width="115" height="26" viewBox="0 0 115 26" fill="none" xmlns="http://www.w3.org/2000/svg">
<path d="M36.061 0.248322L28.9922 25.5511H23.0109L18.2621 7.53465L13.2958 25.5511L7.35072 25.5873L0.535645 0.248322H5.9732L10.432 19.896L15.5796 0.248322H21.2346L26.0922 19.7873L30.5872 0.248322H36.061Z" fill="#BDBDBD"/>
<path d="M50.6849 5.17838C52.2075 5.17838 53.5608 5.51671 54.745 6.19339C55.9292 6.84589 56.8475 7.82465 57.5 9.12967C58.1767 10.4105 58.515 11.9572 58.515 13.7697V25.5511H53.44V14.4585C53.44 12.8635 53.0412 11.643 52.2437 10.7972C51.4462 9.92718 50.3587 9.49217 48.9812 9.49217C47.5795 9.49217 46.4678 9.92718 45.6461 10.7972C44.8486 11.643 44.4499 12.8635 44.4499 14.4585V25.5511H39.3748V0.248302H44.4499V7.96966C45.1024 7.09965 45.9724 6.42297 47.0599 5.93964C48.1474 5.43213 49.3558 5.17838 50.6849 5.17838Z" fill="#BDBDBD"/>
<path d="M61.4784 15.4372C61.4784 13.4072 61.8772 11.6068 62.6747 10.0359C63.4964 8.46508 64.596 7.25673 65.9735 6.41089C67.3752 5.56505 68.9339 5.14213 70.6498 5.14213C72.1481 5.14213 73.6331 5.55282 75.0273 6.31056C75.9578 6.81629 77.2836 7.98365 77.2836 7.98365V5.46838H82.3949V25.5511H77.2836L77.2581 22.7627C76.6056 23.7052 75.7248 24.3427 74.5648 24.9711C73.429 25.5753 72.1119 25.8773 70.6135 25.8773C68.9219 25.8773 67.3752 25.4423 65.9735 24.5723C64.596 23.7023 63.4964 22.4819 62.6747 20.911C61.8772 19.316 61.4784 17.4914 61.4784 15.4372ZM77.2836 15.5097C77.2836 14.2772 77.0419 13.226 76.5586 12.356C76.0753 11.4618 75.4228 10.7851 74.6011 10.3259C73.7794 9.84259 72.8973 9.60092 71.9548 9.60092C71.0123 9.60092 70.1423 9.83051 69.3448 10.2897C68.5473 10.7489 67.8948 11.4255 67.3872 12.3197C66.9039 13.1897 66.6622 14.2289 66.6622 15.4372C66.6622 16.6456 66.9039 17.7089 67.3872 18.6273C67.8948 19.5214 68.5473 20.2102 69.3448 20.6935C70.1664 21.1769 71.0365 21.4185 71.9548 21.4185C72.8973 21.4185 73.7794 21.189 74.6011 20.7298C75.4228 20.2465 76.0753 19.5698 76.5586 18.6998C77.0419 17.8056 77.2836 16.7422 77.2836 15.5097Z" fill="#BDBDBD"/>
<path d="M93.2604 9.63717V19.3523C93.2604 20.0289 93.4175 20.5244 93.7317 20.8385C94.07 21.1285 94.6258 21.2735 95.3992 21.2735H97.7554V25.5511H94.5654C90.2879 25.5511 88.1491 23.4727 88.1491 19.316V9.63717H85.7566V5.46838H88.1491V0.502074H93.2604V5.46838H97.7554V9.63717H93.2604Z" fill="#BDBDBD"/>
<path d="M106.046 21.3823H115V25.5511H100.282V21.4548L109.055 9.63717H100.318V5.46838H114.891V9.56467L106.046 21.3823Z" fill="#BDBDBD"/>
</svg>
