
<svg width="44" height="44" viewBox="0 0 44 44" fill="none" xmlns="http://www.w3.org/2000/svg">
<circle cx="22" cy="22" r="22" fill="#2C2C2C"/>
<path d="M30.8021 21.8021L28.0417 19.0417C27.5356 18.5356 26.7075 18.5356 26.2014 19.0417C25.6953 19.5478 25.6953 20.3759 26.2014 20.882L28.9618 23.6424C30.4801 25.1606 30.4801 27.645 28.9618 29.1633C27.4436 30.6815 24.9592 30.6815 23.441 29.1633L20.6806 26.4028C20.1745 25.8968 19.3464 25.8968 18.8403 26.4028C18.3342 26.9089 18.3342 27.737 18.8403 28.2431L21.6007 31.0035C24.1403 33.5431 28.2625 33.5431 30.8021 31.0035C33.3417 28.4639 33.3417 24.3417 30.8021 21.8021ZM17.9201 18.1216C17.4141 18.6276 17.4141 19.4558 17.9201 19.9618L23.441 25.4827C23.9471 25.9888 24.7752 25.9888 25.2813 25.4827C25.7874 24.9766 25.7874 24.1485 25.2813 23.6424L19.7604 18.1216C19.2543 17.6155 18.4262 17.6155 17.9201 18.1216ZM17 22.7223L14.2396 19.9618C12.7213 18.4436 12.7213 15.9592 14.2396 14.441C15.7578 12.9228 18.2422 12.9228 19.7604 14.441L22.5208 17.2014C23.0269 17.7075 23.8551 17.7075 24.3611 17.2014C24.8672 16.6953 24.8672 15.8672 24.3611 15.3611L21.6007 12.6007C19.0611 10.0611 14.9389 10.0611 12.3993 12.6007C9.8597 15.1403 9.8597 19.2625 12.3993 21.8021L15.1597 24.5625C15.6658 25.0686 16.4939 25.0686 17 24.5625C17.5061 24.0565 17.5061 23.2283 17 22.7223Z" fill="#B8B8B8"/>
</svg>
