
<svg width="32" height="32" viewBox="0 0 32 32" fill="none" xmlns="http://www.w3.org/2000/svg">
<g opacity="0.4">
<path fill-rule="evenodd" clip-rule="evenodd" d="M27 14.1879V23.9586C27 26.7429 24.8112 29 22.1111 29H9.88889C7.18883 29 5 26.7429 5 23.9586V14.1879C5 12.6742 5.65957 11.2406 6.7965 10.2832L12.9076 5.13668C14.7073 3.62111 17.2927 3.6211 19.0924 5.13668L25.2035 10.2832C26.3404 11.2406 27 12.6742 27 14.1879ZM13.5556 23.0625C13.0493 23.0625 12.6389 23.4822 12.6389 24C12.6389 24.5178 13.0493 24.9375 13.5556 24.9375H18.4444C18.9507 24.9375 19.3611 24.5178 19.3611 24C19.3611 23.4822 18.9507 23.0625 18.4444 23.0625H13.5556Z" fill="white"/>
</g>
</svg>
