
<svg width="32" height="32" viewBox="0 0 32 32" fill="none" xmlns="http://www.w3.org/2000/svg">
<g opacity="0.4">
<path fill-rule="evenodd" clip-rule="evenodd" d="M9 4C6.23858 4 4 6.23858 4 9L4 23C4 25.7614 6.23858 28 9 28L23 28C25.7614 28 28 25.7614 28 23L28 9C28 6.23858 25.7614 4 23 4L9 4ZM13 13.3363C13 12.2722 14.2425 11.6364 15.1726 12.2245L19.3679 14.8771C20.2107 15.41 20.2107 16.5899 19.3679 17.1228L15.1727 19.7755C14.2425 20.3636 13 19.7278 13 18.6637V13.3363Z" fill="white"/>
</g>
</svg>
