
<svg width="180" height="41" viewBox="0 0 180 41" fill="none" xmlns="http://www.w3.org/2000/svg">
<path d="M42.8165 19.6332C42.8165 30.9218 33.6652 40.1543 22.3765 40.1543C11.0878 40.1543 1.93652 30.9218 1.93652 19.6332C1.93652 8.34447 11.0878 0 22.3765 0C33.6652 0 42.8165 8.34447 42.8165 19.6332Z" fill="white"/>
<path d="M1.34448 11.7336C1.92503 9.70174 4.16657 9.59692 5.21478 9.7985C4.89225 13.5478 3.83598 21.0706 2.19111 21.1674C0.546237 21.2641 -0.106877 19.837 0.0140716 18.5065C0.215649 17.0955 0.76394 13.7656 1.34448 11.7336Z" fill="white"/>
<path d="M43.1946 11.7336C42.614 9.70174 40.3725 9.59692 39.3243 9.7985C39.6468 13.5478 40.7031 21.0706 42.348 21.1674C43.9928 21.2641 44.6459 19.837 44.525 18.5065C44.3234 17.0955 43.7751 13.7656 43.1946 11.7336Z" fill="white"/>
<path d="M40.3995 19.8486C40.3995 25.9939 35.3861 35.318 22.3785 35.318C9.3708 35.318 4.35742 25.9939 4.35742 19.8486C4.35742 13.7033 12.4257 11.1274 22.3785 11.1274C32.3312 11.1274 40.3995 13.7033 40.3995 19.8486Z" fill="black"/>
<path d="M89.0605 7.24808L81.9917 32.5508H76.0104L71.2616 14.5344L66.2953 32.5508L60.3502 32.5871L53.5352 7.24808H58.9727L63.4315 26.8958L68.5791 7.24808H74.2341L79.0917 26.787L83.5867 7.24808H89.0605Z" fill="white"/>
<path d="M103.684 12.1781C105.207 12.1781 106.56 12.5165 107.744 13.1931C108.929 13.8456 109.847 14.8244 110.5 16.1294C111.176 17.4103 111.515 18.957 111.515 20.7695V32.5508H106.439V21.4582C106.439 19.8632 106.041 18.6428 105.243 17.7969C104.446 16.9269 103.358 16.4919 101.981 16.4919C100.579 16.4919 99.4673 16.9269 98.6457 17.7969C97.8481 18.6428 97.4494 19.8632 97.4494 21.4582V32.5508H92.3743V7.24806H97.4494V14.9694C98.1019 14.0994 98.9719 13.4227 100.059 12.9394C101.147 12.4319 102.355 12.1781 103.684 12.1781Z" fill="white"/>
<path d="M114.478 22.437C114.478 20.407 114.877 18.6065 115.674 17.0357C116.496 15.4648 117.595 14.2565 118.973 13.4106C120.375 12.5648 121.933 12.1419 123.649 12.1419C125.148 12.1419 126.633 12.5526 128.027 13.3103C128.957 13.816 130.283 14.9834 130.283 14.9834V12.4681H135.394V32.5508H130.283L130.258 29.7624C129.605 30.7049 128.724 31.3425 127.564 31.9708C126.428 32.575 125.111 32.8771 123.613 32.8771C121.921 32.8771 120.375 32.4421 118.973 31.5721C117.595 30.7021 116.496 29.4816 115.674 27.9108C114.877 26.3158 114.478 24.4912 114.478 22.437ZM130.283 22.5095C130.283 21.277 130.041 20.2257 129.558 19.3557C129.075 18.4615 128.422 17.7849 127.601 17.3257C126.779 16.8423 125.897 16.6007 124.954 16.6007C124.012 16.6007 123.142 16.8303 122.344 17.2894C121.547 17.7486 120.894 18.4253 120.387 19.3195C119.903 20.1895 119.662 21.2286 119.662 22.437C119.662 23.6453 119.903 24.7087 120.387 25.627C120.894 26.5212 121.547 27.21 122.344 27.6933C123.166 28.1766 124.036 28.4183 124.954 28.4183C125.897 28.4183 126.779 28.1887 127.601 27.7295C128.422 27.2462 129.075 26.5695 129.558 25.6995C130.041 24.8053 130.283 23.742 130.283 22.5095Z" fill="white"/>
<path d="M146.26 16.6369V26.352C146.26 27.0287 146.417 27.5241 146.731 27.8383C147.07 28.1283 147.625 28.2733 148.399 28.2733H150.755V32.5508H147.565C143.287 32.5508 141.149 30.4725 141.149 26.3158V16.6369H138.756V12.4681H141.149V7.50183H146.26V12.4681H150.755V16.6369H146.26Z" fill="white"/>
<path d="M159.045 28.3821H167.999V32.5508H153.281V28.4546L162.054 16.6369H153.318V12.4681H167.89V16.5644L159.045 28.3821Z" fill="white"/>
</svg>
