<svg width="44" height="44" viewBox="0 0 44 44" fill="none" xmlns="http://www.w3.org/2000/svg">
<circle cx="22" cy="22" r="22" fill="white"/>
<path fill-rule="evenodd" clip-rule="evenodd" d="M24.047 12.7222C25.0099 11.7593 26.5712 11.7593 27.5342 12.7222L29.2778 14.4658C30.2407 15.4288 30.2407 16.9901 29.2778 17.953L27.7318 19.499C27.6105 19.4389 27.4828 19.3739 27.3504 19.3042C26.4593 18.835 25.4018 18.1766 24.6126 17.3874C23.8234 16.5982 23.165 15.5407 22.6959 14.6496C22.6261 14.5172 22.5612 14.3895 22.5011 14.2681L24.047 12.7222ZM23.4813 18.5188C24.4151 19.4527 25.6028 20.1877 26.5434 20.6874L20.464 26.7668C20.0868 27.144 19.5973 27.3887 19.0692 27.4642L15.4076 27.9873C14.5939 28.1035 13.8965 27.4061 14.0127 26.5924L14.5358 22.9308C14.6113 22.4027 14.856 21.9132 15.2332 21.536L21.3126 15.4566C21.8123 16.3972 22.5474 17.5849 23.4813 18.5188ZM19.8667 29.6C19.4248 29.6 19.0667 29.9582 19.0667 30.4C19.0667 30.8418 19.4248 31.2 19.8667 31.2H29.2C29.6418 31.2 30 30.8418 30 30.4C30 29.9582 29.6418 29.6 29.2 29.6H19.8667Z" fill="black"/>
</svg>
