<svg width="16" height="16" viewBox="0 0 16 16" fill="none" xmlns="http://www.w3.org/2000/svg">
<rect width="16" height="16" fill="black"/>
<path d="M12.6121 7.90811C12.6121 10.4427 10.5574 12.5156 8.02286 12.5156C5.48828 12.5156 3.43359 10.4427 3.43359 7.90811C3.43359 5.37353 5.48828 3.5 8.02286 3.5C10.5574 3.5 12.6121 5.37353 12.6121 7.90811Z" fill="white"/>
<path d="M3.30187 6.13412C3.43221 5.67791 3.9355 5.65438 4.17084 5.69964C4.09843 6.54145 3.86127 8.2305 3.49196 8.25222C3.12264 8.27395 2.976 7.95351 3.00316 7.6548C3.04842 7.338 3.17152 6.59033 3.30187 6.13412Z" fill="white"/>
<path d="M12.6981 6.13412C12.5678 5.67791 12.0645 5.65438 11.8292 5.69964C11.9016 6.54145 12.1387 8.2305 12.508 8.25222C12.8774 8.27395 13.024 7.95351 12.9968 7.6548C12.9516 7.338 12.8285 6.59033 12.6981 6.13412Z" fill="white"/>
<path d="M12.0708 7.95714C12.0708 9.33691 10.9452 11.4304 8.02467 11.4304C5.10414 11.4304 3.97852 9.33691 3.97852 7.95714C3.97852 6.57737 5.79004 5.99902 8.02467 5.99902C10.2593 5.99902 12.0708 6.57737 12.0708 7.95714Z" fill="black"/>
</svg>
