<svg width="10" height="10" viewBox="0 0 10 10" fill="none" xmlns="http://www.w3.org/2000/svg">
<path d="M9.61213 4.90812C9.61213 7.4427 7.55744 9.5156 5.02286 9.5156C2.48828 9.5156 0.433594 7.4427 0.433594 4.90812C0.433594 2.37353 2.48828 0.5 5.02286 0.5C7.55744 0.5 9.61213 2.37353 9.61213 4.90812Z" fill="white"/>
<path d="M0.301869 3.13412C0.432215 2.67791 0.935495 2.65438 1.17084 2.69964C1.09843 3.54145 0.86127 5.2305 0.491957 5.25222C0.122643 5.27395 -0.0239963 4.95351 0.00315942 4.6548C0.0484184 4.338 0.171523 3.59033 0.301869 3.13412Z" fill="white"/>
<path d="M9.69813 3.13412C9.56779 2.67791 9.0645 2.65438 8.82916 2.69964C8.90157 3.54145 9.13873 5.2305 9.50804 5.25222C9.87736 5.27395 10.024 4.95351 9.99684 4.6548C9.95158 4.338 9.82848 3.59033 9.69813 3.13412Z" fill="white"/>
<path d="M9.07083 4.95714C9.07083 6.33691 7.94521 8.43038 5.02467 8.43038C2.10414 8.43038 0.978516 6.33691 0.978516 4.95714C0.978516 3.57737 2.79004 2.99902 5.02467 2.99902C7.2593 2.99902 9.07083 3.57737 9.07083 4.95714Z" fill="black"/>
</svg>
