<svg width="28" height="28" viewBox="0 0 28 28" fill="none" xmlns="http://www.w3.org/2000/svg">
<circle cx="14" cy="14" r="14" fill="#B6F500"/>
<path d="M20.2727 17.3542C20.4683 16.9274 20.2809 16.4229 19.8542 16.2273C19.4274 16.0317 18.9229 16.2191 18.7273 16.6458L20.2727 17.3542ZM9.27271 16.6458C9.07711 16.2191 8.5726 16.0317 8.14584 16.2273C7.71909 16.4229 7.5317 16.9274 7.72729 17.3542L9.27271 16.6458ZM18.7273 16.6458C18.598 16.928 18.1925 17.3566 17.3602 17.7216C16.5515 18.0762 15.4208 18.3318 14 18.3318V20.0318C15.6168 20.0318 16.986 19.742 18.043 19.2784C19.0763 18.8252 19.902 18.1629 20.2727 17.3542L18.7273 16.6458ZM14 18.3318C12.5792 18.3318 11.4485 18.0762 10.6398 17.7216C9.80754 17.3566 9.40201 16.928 9.27271 16.6458L7.72729 17.3542C8.09799 18.1629 8.92367 18.8252 9.95702 19.2784C11.014 19.742 12.3832 20.0318 14 20.0318V18.3318Z" fill="black"/>
<circle cx="10.1818" cy="11.1818" r="2.18182" fill="black"/>
<circle cx="17.8185" cy="11.1818" r="2.18182" fill="black"/>
</svg>
