<svg width="46" height="46" viewBox="0 0 46 46" fill="none" xmlns="http://www.w3.org/2000/svg">
<path d="M43.2984 22.3957C43.2984 33.5479 34.2578 42.6686 23.1056 42.6686C11.9535 42.6686 2.91284 33.5479 2.91284 22.3957C2.91284 11.2435 11.9535 3 23.1056 3C34.2578 3 43.2984 11.2435 43.2984 22.3957Z" fill="#BDBDBD"/>
<path d="M2.32822 14.5915C2.90175 12.5841 5.11618 12.4806 6.15171 12.6797C5.83308 16.3837 4.78959 23.8155 3.16461 23.9111C1.53963 24.0067 0.894416 22.5968 1.0139 21.2824C1.21304 19.8885 1.7547 16.5988 2.32822 14.5915Z" fill="#BDBDBD"/>
<path d="M43.6718 14.5915C43.0983 12.5841 40.8838 12.4806 39.8483 12.6797C40.1669 16.3837 41.2104 23.8155 42.8354 23.9111C44.4604 24.0067 45.1056 22.5968 44.9861 21.2824C44.787 19.8885 44.2453 16.5988 43.6718 14.5915Z" fill="#BDBDBD"/>
<path d="M40.9105 22.6084C40.9105 28.6794 35.9578 37.8907 23.1074 37.8907C10.2571 37.8907 5.30432 28.6794 5.30432 22.6084C5.30432 16.5374 13.275 13.9927 23.1074 13.9927C32.9398 13.9927 40.9105 16.5374 40.9105 22.6084Z" fill="white"/>
</svg>
