<svg width="84" height="84" viewBox="0 0 84 84" fill="none" xmlns="http://www.w3.org/2000/svg">
<g filter="url(#filter0_b_843_4795)">
<circle opacity="0.4" cx="42" cy="42" r="42" fill="black"/>
<path d="M49.4 36.4574C52.5504 38.2763 54.1256 39.1857 54.6542 40.3731C55.1153 41.4087 55.1153 42.5913 54.6542 43.6269C54.1256 44.8143 52.5504 45.7237 49.4 47.5426L43.1 51.1799C39.9496 52.9987 38.3744 53.9082 37.0819 53.7723C35.9545 53.6538 34.9303 53.0625 34.2639 52.1454C33.5 51.0939 33.5 49.275 33.5 45.6373L33.5 38.3627C33.5 34.725 33.5 32.9061 34.2639 31.8546C34.9303 30.9375 35.9545 30.3462 37.0819 30.2277C38.3744 30.0918 39.9496 31.0013 43.1 32.8201L49.4 36.4574Z" fill="white"/>
</g>
<defs>
<filter id="filter0_b_843_4795" x="-20" y="-20" width="124" height="124" filterUnits="userSpaceOnUse" color-interpolation-filters="sRGB">
<feFlood flood-opacity="0" result="BackgroundImageFix"/>
<feGaussianBlur in="BackgroundImage" stdDeviation="10"/>
<feComposite in2="SourceAlpha" operator="in" result="effect1_backgroundBlur_843_4795"/>
<feBlend mode="normal" in="SourceGraphic" in2="effect1_backgroundBlur_843_4795" result="shape"/>
</filter>
</defs>
</svg>
